<svg width="290" height="142" viewBox="0 0 290 142" fill="none" xmlns="http://www.w3.org/2000/svg">
<path d="M36.3563 85.8887H24.7792V87.1041L27.2165 139.772H0L2.4373 90.5478L0 0H44.0744C57.0733 0 67.4318 3.51118 75.1499 10.5335C82.868 17.5559 86.7271 26.874 86.7271 38.4879C86.7271 47.2658 84.4252 55.301 79.8214 62.5934C75.353 69.7508 69.2598 75.4227 61.5417 79.6091L96.8825 129.441L72.3064 142L40.6216 85.6862C39.6737 85.8212 38.252 85.8887 36.3563 85.8887ZM36.7625 20.4593H26.8102L25.3885 66.2397H39.1998C45.9701 66.2397 51.1832 64.0114 54.8391 59.5549C58.6305 55.0984 60.5262 48.7513 60.5262 40.5136C60.5262 27.1441 52.6049 20.4593 36.7625 20.4593Z" fill="#F08C00"/>
<path d="M123.307 119.11C127.234 119.11 131.364 118.097 135.697 116.071C140.03 114.046 143.415 112.02 145.852 109.994L149.508 106.956L158.851 118.3C157.497 120.595 155.398 123.229 152.555 126.2C149.711 129.171 146.8 131.737 143.821 133.897C140.978 135.923 137.118 137.814 132.244 139.569C127.505 141.19 122.562 142 117.417 142C106.449 142 97.5124 137.881 90.6068 129.643C83.7011 121.271 80.2482 110.534 80.2482 97.4351C80.2482 80.9596 85.0551 66.5098 94.6689 54.0856C104.283 41.6614 115.521 35.4494 128.385 35.4494C138.269 35.4494 145.92 38.2178 151.336 43.7546C156.888 49.2915 159.663 57.0566 159.663 67.0499C159.663 72.9919 158.648 79.7442 156.617 87.3067L152.555 91.5606L101.778 96.2197C104.08 111.48 111.256 119.11 123.307 119.11ZM123.307 56.3138C117.349 56.3138 112.339 58.7447 108.277 63.6063C104.215 68.3329 101.845 74.4099 101.168 81.8374L135.697 77.5835C136.103 74.4774 136.306 71.9116 136.306 69.8859C136.306 60.8379 131.973 56.3138 123.307 56.3138Z" fill="#F08C00"/>
<path d="M170.15 3.67694C175.033 1.93965 180.31 1.62034 185.368 2.75612C190.426 3.89191 195.056 6.43613 198.721 10.093C202.387 13.7499 204.936 18.3691 206.072 23.4138C207.209 28.4584 206.886 33.7212 205.142 38.5903L290 123.22L273.396 139.772L188.538 55.1495C183.655 56.8868 178.378 57.2061 173.32 56.0703C168.263 54.9345 163.632 52.3903 159.967 48.7334C156.302 45.0766 153.753 40.4573 152.616 35.4127C151.48 30.368 151.802 25.1052 153.546 20.2362L171.042 37.6928C172.125 38.8108 173.42 39.7026 174.852 40.316C176.284 40.9295 177.824 41.2524 179.383 41.2659C180.941 41.2794 182.486 40.9833 183.929 40.3947C185.371 39.8061 186.682 38.937 187.784 37.8379C188.886 36.7389 189.757 35.4319 190.347 33.9934C190.938 32.5548 191.235 31.0135 191.221 29.4592C191.207 27.905 190.884 26.369 190.269 24.9409C189.653 23.5128 188.759 22.2212 187.638 21.1414L170.142 3.66913L170.15 3.67694ZM251.268 18.3789L276.166 4.58216L287.23 15.6164L273.396 40.4475L259.562 43.21L242.974 59.7614L231.902 48.7271L248.498 32.1757L251.268 18.3789ZM195.94 79.0753L212.536 95.6346L173.804 134.262C171.669 136.373 168.802 137.585 165.797 137.649C162.791 137.714 159.875 136.625 157.65 134.609C155.425 132.592 154.061 129.801 153.839 126.811C153.617 123.821 154.554 120.86 156.457 118.538L157.216 117.703L195.948 79.0753H195.94Z" fill="#F08C00"/>
</svg>
