<svg xmlns="http://www.w3.org/2000/svg" width="210" height="210" fill="none"><circle cx="105" cy="105" r="105" fill="#202122"/><path fill="#FFBE2D" d="M41.152 112.952h-7.296v.768L35.392 147H18.24l1.536-31.104L18.24 58.68h27.776c8.192 0 14.72 2.219 19.584 6.656 4.864 4.437 7.296 10.325 7.296 17.664 0 5.547-1.45 10.624-4.352 15.232-2.816 4.523-6.656 8.107-11.52 10.752l22.272 31.488-15.488 7.936-19.968-35.584c-.597.085-1.493.128-2.688.128Zm.256-41.344h-6.272l-.896 28.928h8.704c4.267 0 7.552-1.408 9.856-4.224 2.39-2.816 3.584-6.827 3.584-12.032 0-8.448-4.992-12.672-14.976-12.672Zm54.541 62.336c2.475 0 5.077-.64 7.808-1.92 2.731-1.28 4.864-2.56 6.4-3.84l2.304-1.92 5.888 7.168c-.853 1.451-2.176 3.115-3.968 4.992-1.792 1.877-3.627 3.499-5.504 4.864-1.792 1.28-4.224 2.475-7.296 3.584-2.987 1.024-6.101 1.536-9.344 1.536-6.912 0-12.544-2.603-16.896-7.808-4.352-5.291-6.528-12.075-6.528-20.352 0-10.411 3.03-19.541 9.088-27.392 6.059-7.85 13.141-11.776 21.248-11.776 6.229 0 11.051 1.75 14.464 5.248 3.499 3.499 5.248 8.405 5.248 14.72 0 3.755-.64 8.021-1.92 12.8l-2.56 2.688-32 2.944c1.45 9.643 5.973 14.464 13.568 14.464Zm0-39.68c-3.755 0-6.912 1.536-9.472 4.608-2.56 2.987-4.053 6.827-4.48 11.52l21.76-2.688c.256-1.963.384-3.584.384-4.864 0-5.717-2.731-8.576-8.192-8.576Z"/><path fill="#FFBE2D" d="M125.47 61.003a17.258 17.258 0 0 1 22.052 22.062L201 136.54 190.536 147l-53.478-53.472a17.259 17.259 0 0 1-22.052-22.061l11.026 11.03a7.398 7.398 0 0 0 12.717-5.202 7.417 7.417 0 0 0-.6-2.855 7.41 7.41 0 0 0-1.658-2.401l-11.026-11.04.005.004Zm51.121 9.29 15.691-8.718 6.972 6.973-8.718 15.69-8.718 1.746-10.454 10.459-6.978-6.973 10.459-10.459 1.746-8.718Zm-34.868 38.354 10.459 10.463-24.409 24.409a7.4 7.4 0 0 1-10.181.219 7.396 7.396 0 0 1-.752-10.155l.479-.528 24.409-24.408h-.005Z"/></svg>